<svg width="48" height="48" viewBox="0 0 48 48" fill="none" xmlns="http://www.w3.org/2000/svg">
<g filter="url(#filter0_d_39_31)">
<path d="M42.8162 6.83117C44.3779 5.2694 44.3779 2.73309 42.8162 1.17133C41.2544 -0.390442 38.7181 -0.390442 37.1563 1.17133L24 14.3402L10.8312 1.18382C9.2694 -0.377948 6.73309 -0.377948 5.17133 1.18382C3.60956 2.74559 3.60956 5.2819 5.17133 6.84367L18.3402 20L5.18382 33.1688C3.62205 34.7306 3.62205 37.2669 5.18382 38.8287C6.74559 40.3904 9.2819 40.3904 10.8437 38.8287L24 25.6598L37.1688 38.8162C38.7306 40.3779 41.2669 40.3779 42.8287 38.8162C44.3904 37.2544 44.3904 34.7181 42.8287 33.1563L29.6598 20L42.8162 6.83117Z" fill="black"/>
</g>
<defs>
<filter id="filter0_d_39_31" x="0" y="0" width="48" height="48" filterUnits="userSpaceOnUse" color-interpolation-filters="sRGB">
<feFlood flood-opacity="0" result="BackgroundImageFix"/>
<feColorMatrix in="SourceAlpha" type="matrix" values="0 0 0 0 0 0 0 0 0 0 0 0 0 0 0 0 0 0 127 0" result="hardAlpha"/>
<feOffset dy="4"/>
<feGaussianBlur stdDeviation="2"/>
<feComposite in2="hardAlpha" operator="out"/>
<feColorMatrix type="matrix" values="0 0 0 0 0 0 0 0 0 0 0 0 0 0 0 0 0 0 0.25 0"/>
<feBlend mode="normal" in2="BackgroundImageFix" result="effect1_dropShadow_39_31"/>
<feBlend mode="normal" in="SourceGraphic" in2="effect1_dropShadow_39_31" result="shape"/>
</filter>
</defs>
</svg>
