<svg width="58" height="53" viewBox="0 0 58 53" fill="none" xmlns="http://www.w3.org/2000/svg">
<g filter="url(#filter0_d_39_32)">
<path d="M26.4785 1.09271C27.8731 -0.364236 30.138 -0.364236 31.5326 1.09271L52.954 23.4714C54.3487 24.9283 54.3487 27.2944 52.954 28.7514C51.5594 30.2083 49.2945 30.2083 47.8999 28.7514L29 9.00684L10.1001 28.7397C8.70546 30.1966 6.44059 30.1966 5.04597 28.7397C3.65134 27.2828 3.65134 24.9167 5.04597 23.4597L26.4674 1.08105L26.4785 1.09271Z" fill="#07FF01"/>
<path d="M26.4785 16.2487C27.8731 14.7917 30.138 14.7917 31.5326 16.2487L52.954 38.6273C54.3487 40.0843 54.3487 42.4504 52.954 43.9073C51.5594 45.3642 49.2945 45.3642 47.8999 43.9073L29 24.1628L10.1001 43.8956C8.70546 45.3526 6.44059 45.3526 5.04597 43.8956C3.65134 42.4387 3.65134 40.0726 5.04597 38.6157L26.4674 16.237L26.4785 16.2487Z" fill="#07FF01" fill-opacity="0.75"/>
</g>
<defs>
<filter id="filter0_d_39_32" x="0" y="0" width="58" height="53" filterUnits="userSpaceOnUse" color-interpolation-filters="sRGB">
<feFlood flood-opacity="0" result="BackgroundImageFix"/>
<feColorMatrix in="SourceAlpha" type="matrix" values="0 0 0 0 0 0 0 0 0 0 0 0 0 0 0 0 0 0 127 0" result="hardAlpha"/>
<feOffset dy="4"/>
<feGaussianBlur stdDeviation="2"/>
<feComposite in2="hardAlpha" operator="out"/>
<feColorMatrix type="matrix" values="0 0 0 0 0 0 0 0 0 0 0 0 0 0 0 0 0 0 0.25 0"/>
<feBlend mode="normal" in2="BackgroundImageFix" result="effect1_dropShadow_39_32"/>
<feBlend mode="normal" in="SourceGraphic" in2="effect1_dropShadow_39_32" result="shape"/>
</filter>
</defs>
</svg>
