<svg width="59" height="69" viewBox="0 0 59 69" fill="none" xmlns="http://www.w3.org/2000/svg">
<g filter="url(#filter0_d_39_23)">
<path d="M32.0391 59.4163C30.6444 60.8695 28.3796 60.8695 26.9849 59.4163L5.56354 37.0956C4.16892 35.6424 4.16892 33.2825 5.56354 31.8293C6.95816 30.3762 9.22303 30.3762 10.6177 31.8293L29.5176 51.5227L48.4175 31.841C49.8121 30.3878 52.077 30.3878 53.4716 31.841C54.8662 33.2941 54.8662 35.6541 53.4716 37.1072L32.0502 59.4279L32.0391 59.4163Z" fill="#FF0101" fill-opacity="0.5"/>
<path d="M32.0391 29.183C30.6444 30.6361 28.3796 30.6361 26.9849 29.183L5.56354 6.86231C4.16892 5.40914 4.16892 3.04919 5.56354 1.59603C6.95816 0.142858 9.22303 0.142858 10.6177 1.59603L29.5176 21.2894L48.4175 1.60765C49.8121 0.154484 52.077 0.154484 53.4716 1.60765C54.8662 3.06082 54.8662 5.42077 53.4716 6.87394L32.0502 29.1946L32.0391 29.183Z" fill="#FF0101"/>
<path d="M32.0391 44.2996C30.6444 45.7528 28.3796 45.7528 26.9849 44.2996L5.56354 21.979C4.16892 20.5258 4.16892 18.1659 5.56354 16.7127C6.95816 15.2595 9.22303 15.2595 10.6177 16.7127L29.5176 36.406L48.4175 16.7243C49.8121 15.2712 52.077 15.2712 53.4716 16.7243C54.8662 18.1775 54.8662 20.5374 53.4716 21.9906L32.0502 44.3113L32.0391 44.2996Z" fill="#FF0101" fill-opacity="0.75"/>
</g>
<defs>
<filter id="filter0_d_39_23" x="0.517578" y="0.506165" width="58" height="68" filterUnits="userSpaceOnUse" color-interpolation-filters="sRGB">
<feFlood flood-opacity="0" result="BackgroundImageFix"/>
<feColorMatrix in="SourceAlpha" type="matrix" values="0 0 0 0 0 0 0 0 0 0 0 0 0 0 0 0 0 0 127 0" result="hardAlpha"/>
<feOffset dy="4"/>
<feGaussianBlur stdDeviation="2"/>
<feComposite in2="hardAlpha" operator="out"/>
<feColorMatrix type="matrix" values="0 0 0 0 0 0 0 0 0 0 0 0 0 0 0 0 0 0 0.25 0"/>
<feBlend mode="normal" in2="BackgroundImageFix" result="effect1_dropShadow_39_23"/>
<feBlend mode="normal" in="SourceGraphic" in2="effect1_dropShadow_39_23" result="shape"/>
</filter>
</defs>
</svg>
